<svg width="18" height="19" viewBox="0 0 18 19" fill="none" xmlns="http://www.w3.org/2000/svg">
<path d="M17.28 2.12H13.5V0.68C13.5 0.581 13.419 0.5 13.32 0.5H12.06C11.961 0.5 11.88 0.581 11.88 0.68V2.12H6.12V0.68C6.12 0.581 6.039 0.5 5.94 0.5H4.68C4.581 0.5 4.5 0.581 4.5 0.68V2.12H0.72C0.32175 2.12 0 2.44175 0 2.84V17.78C0 18.1782 0.32175 18.5 0.72 18.5H17.28C17.6782 18.5 18 18.1782 18 17.78V2.84C18 2.44175 17.6782 2.12 17.28 2.12ZM16.38 16.88H1.62V8.33H16.38V16.88ZM1.62 6.8V3.74H4.5V4.82C4.5 4.919 4.581 5 4.68 5H5.94C6.039 5 6.12 4.919 6.12 4.82V3.74H11.88V4.82C11.88 4.919 11.961 5 12.06 5H13.32C13.419 5 13.5 4.919 13.5 4.82V3.74H16.38V6.8H1.62Z" fill="#4E4343"/>
</svg>
